<?xml version="1.0" standalone="no"?><!DOCTYPE svg PUBLIC "-//W3C//DTD SVG 1.1//EN" "http://www.w3.org/Graphics/SVG/1.1/DTD/svg11.dtd"><svg t="1694584197436" class="icon" viewBox="0 0 1024 1024" version="1.1" xmlns="http://www.w3.org/2000/svg" p-id="6106" xmlns:xlink="http://www.w3.org/1999/xlink" width="200" height="200"><path d="M768 341.333333v341.333334c0 25.6-17.066667 42.666667-42.666667 42.666666s-42.666667-17.066667-42.666666-42.666666V341.333333c0-25.6 17.066667-42.666667 42.666666-42.666666s42.666667 17.066667 42.666667 42.666666z m-213.333333 0v341.333334c0 25.6-17.066667 42.666667-42.666667 42.666666s-42.666667-17.066667-42.666667-42.666666V341.333333c0-25.6 17.066667-42.666667 42.666667-42.666666s42.666667 17.066667 42.666667 42.666666zM341.333333 341.333333v341.333334c0 25.6-17.066667 42.666667-42.666666 42.666666s-42.666667-17.066667-42.666667-42.666666V341.333333c0-25.6 17.066667-42.666667 42.666667-42.666666s42.666667 17.066667 42.666666 42.666666zM917.333333 106.666667h-204.8c-17.066667 0-34.133333-12.8-34.133333-34.133334s17.066667-29.866667 38.4-29.866666h234.666667c17.066667 0 29.866667 12.8 29.866666 34.133333v234.666667c0 17.066667-12.8 29.866667-34.133333 29.866666s-34.133333-12.8-34.133333-34.133333V106.666667zM106.666667 917.333333h204.8c17.066667 0 34.133333 12.8 34.133333 34.133334s-17.066667 29.866667-38.4 29.866666H76.8c-21.333333 0-34.133333-12.8-34.133333-34.133333v-234.666667c0-17.066667 12.8-29.866667 34.133333-29.866666s34.133333 12.8 34.133333 34.133333v200.533333z" fill="#444444" p-id="6107"></path><path d="M917.333333 917.333333h-204.8c-17.066667 0-34.133333 12.8-34.133333 34.133334s12.8 34.133333 34.133333 34.133333h234.666667c17.066667 0 34.133333-12.8 34.133333-34.133333v-234.666667c0-17.066667-12.8-34.133333-34.133333-34.133333s-34.133333 12.8-34.133333 34.133333v200.533333zM106.666667 106.666667h204.8c17.066667 0 29.866667-12.8 29.866666-29.866667S328.533333 42.666667 307.2 42.666667H76.8c-21.333333 0-34.133333 12.8-34.133333 34.133333v234.666667c0 17.066667 12.8 29.866667 34.133333 29.866666s34.133333-12.8 34.133333-34.133333V106.666667z" fill="#444444" p-id="6108"></path></svg>