<?xml version="1.0" standalone="no"?><!DOCTYPE svg PUBLIC "-//W3C//DTD SVG 1.1//EN" "http://www.w3.org/Graphics/SVG/1.1/DTD/svg11.dtd"><svg t="1694584237710" class="icon" viewBox="0 0 1024 1024" version="1.1" xmlns="http://www.w3.org/2000/svg" p-id="7073" xmlns:xlink="http://www.w3.org/1999/xlink" width="200" height="200"><path d="M384 64C207.3 64 64 207.3 64 384s143.3 320 320 320a318.4 318.4 0 0 0 199.1-69.5l260.6 260.6a5.4 5.4 0 0 0 3.9 1.6 5.7 5.7 0 0 0 4-1.6l43-43a5.6 5.6 0 0 0 0-7.9L634.1 583.7A319.2 319.2 0 0 0 704 384c0-176.7-143.3-320-320-320z m233.6 403.4a246.4 246.4 0 0 1-39.8 71.3l-17.5 22-22 17.5a248 248 0 0 1-382.8-97.7 248 248 0 0 1 132-325 248 248 0 0 1 325 132 248.6 248.6 0 0 1 5.1 179.9z" p-id="7074" data-spm-anchor-id="a313x.search_index.0.i1.7a8f3a81jbNIKX" class="selected"></path></svg>