<?xml version="1.0" standalone="no"?><!DOCTYPE svg PUBLIC "-//W3C//DTD SVG 1.1//EN" "http://www.w3.org/Graphics/SVG/1.1/DTD/svg11.dtd"><svg t="1688634375503" class="icon" viewBox="0 0 1024 1024" version="1.1" xmlns="http://www.w3.org/2000/svg" p-id="2660" id="mx_n_1688634375504" xmlns:xlink="http://www.w3.org/1999/xlink" width="200" height="200"><path d="M878.3 392.1L631.9 145.7c-6.5-6.5-15-9.7-23.5-9.7s-17 3.2-23.5 9.7L423.8 306.9c-12.2-1.4-24.5-2-36.8-2-73.2 0-146.4 24.1-206.5 72.3-15.4 12.3-16.7 35.4-2.7 49.4l181.7 181.7-215.4 215.2c-2.6 2.6-4.3 6.1-4.6 9.8l-3.4 37.2c-0.9 9.4 6.6 17.4 15.9 17.4 0.5 0 1 0 1.5-0.1l37.2-3.4c3.7-0.3 7.2-2 9.8-4.6l215.4-215.4 181.7 181.7c6.5 6.5 15 9.7 23.5 9.7 9.7 0 19.3-4.2 25.9-12.4 56.3-70.3 79.7-158.3 70.2-243.4l161.1-161.1c12.9-12.8 12.9-33.8 0-46.8zM666.2 549.3l-24.5 24.5 3.8 34.4c3.7 33.7 1 67.2-8.2 99.7-5.4 19-12.8 37.1-22.2 54.2L262 408.8c12.9-7.1 26.3-13.1 40.3-17.9 27.2-9.4 55.7-14.1 84.7-14.1 9.6 0 19.3 0.5 28.9 1.6l34.4 3.8 24.5-24.5L608.5 224 800 415.5 666.2 549.3z" p-id="2661" data-spm-anchor-id="a313x.7781069.0.i6" class="" fill="#444444"></path></svg>